<?xml version="1.0" encoding="UTF-8" standalone="no"?>
<svg
   width="16"
   height="16"
   viewBox="0 0 16 16"
   fill="#424242"
   version="1.1"
   id="svg19"
   sodipodi:docname="cloud-git-8-light.svg"
   inkscape:version="1.1 (c68e22c387, 2021-05-23)"
   xmlns:inkscape="http://www.inkscape.org/namespaces/inkscape"
   xmlns:sodipodi="http://sodipodi.sourceforge.net/DTD/sodipodi-0.dtd"
   xmlns:xlink="http://www.w3.org/1999/xlink"
   xmlns="http://www.w3.org/2000/svg"
   xmlns:svg="http://www.w3.org/2000/svg">
  <defs
     id="defs23">
    <linearGradient
       id="linearGradient2746"
       inkscape:swatch="solid">
      <stop
         style="stop-color:#f06f33;stop-opacity:1;"
         offset="0"
         id="stop2744" />
    </linearGradient>
    <linearGradient
       inkscape:collect="always"
       xlink:href="#linearGradient2746"
       id="linearGradient2748"
       x1="6.929687"
       y1="10.920002"
       x2="15.240035"
       y2="10.920002"
       gradientUnits="userSpaceOnUse"
       gradientTransform="matrix(1.2083976,0,0,1.2332905,-2.2661002,-3.8099366)" />
  </defs>
  <sodipodi:namedview
     id="namedview21"
     pagecolor="#ffffff"
     bordercolor="#666666"
     borderopacity="1.0"
     inkscape:pageshadow="2"
     inkscape:pageopacity="0.0"
     inkscape:pagecheckerboard="0"
     showgrid="true"
     inkscape:zoom="64"
     inkscape:cx="12.179687"
     inkscape:cy="9.1953125"
     inkscape:window-width="1920"
     inkscape:window-height="1057"
     inkscape:window-x="-8"
     inkscape:window-y="-8"
     inkscape:window-maximized="1"
     inkscape:current-layer="svg19">
    <inkscape:grid
       type="xygrid"
       id="grid123" />
  </sodipodi:namedview>
  <path
     id="path17"
     d="M 8.3782517,0.949681 A 3.9812586,3.9812586 0 0 0 4.9341946,3.3319693 3.9538489,3.9538489 0 0 0 3.2590087,3.287357 3.9995317,3.9995317 0 0 0 1.02171,9.8877233 3.9812586,3.9812586 0 0 0 4.024107,11.212703 h 2.9020196 c 4.512e-4,-0.08515 0.00182,-0.171478 0.00223,-0.256519 4.172e-4,-0.08568 -4.039e-4,-0.170831 0,-0.256521 3.198e-4,-0.0767 0.00207,-0.153064 0,-0.229753 -0.00176,-0.07228 -0.0066,-0.144213 -0.011158,-0.216369 -0.00338,-0.06108 -0.00733,-0.121932 -0.011145,-0.182908 H 4.568375 4.024107 A 2.8586031,2.8586031 0 0 1 2.0098689,5.1967564 C 2.5432159,4.6611254 3.2680561,4.360279 4.024107,4.360279 A 2.8437562,2.8437562 0 0 1 4.6709831,4.442812 L 5.5944543,4.6591803 5.9736575,3.7892435 a 2.8300513,2.8300513 0 0 1 2.984552,-1.6885694 2.8437562,2.8437562 0 0 1 2.4268995,2.4224391 l 0.140529,0.9792364 h 1.043924 a 2.2864257,2.2864257 0 0 1 2.27968,2.2841415 2.277289,2.277289 0 0 1 -0.301132,1.1197646 c 0.0016,5.234e-4 0.003,0.00171 0.0044,0.00223 0.0092,0.00335 0.0173,0.00633 0.02677,0.00892 0.01217,0.00326 0.02559,0.00624 0.03792,0.00892 0.01867,0.00412 0.03724,0.00871 0.05576,0.013383 0.02123,0.00547 0.04136,0.011786 0.06246,0.017851 0.02172,0.00617 0.04301,0.011443 0.06469,0.017851 0.02291,0.0072 0.04617,0.013225 0.06914,0.020078 0.0265,0.00765 0.05215,0.017406 0.07808,0.02677 0.02574,0.00913 0.05266,0.018947 0.07808,0.028997 0.02492,0.00994 0.04879,0.018832 0.07361,0.028997 0.02745,0.011191 0.05556,0.023401 0.08254,0.035691 0.02708,0.012175 0.05354,0.025057 0.0803,0.037917 0.0259,0.012413 0.05207,0.025731 0.07808,0.037917 0.02779,0.012758 0.05505,0.026725 0.08253,0.040155 0.02913,0.014289 0.05868,0.028792 0.087,0.044609 0.0222,0.012773 0.04271,0.024771 0.06469,0.037916 0.01264,0.00754 0.02506,0.01428 0.03569,0.0223 A 3.4296383,3.4296383 0 0 0 14.987539,5.3640519 3.4147915,3.4147915 0 0 0 12.571791,4.360279 h -0.05799 A 3.9732641,3.9732641 0 0 0 9.1121213,0.97867877 3.9812586,3.9812586 0 0 0 8.3782517,0.949681 Z"
     style="stroke-width:1.14207" />
  <path
     id="path113"
     style="fill:url(#linearGradient2748);fill-opacity:1;stroke-width:0.842642"
     d="M 8.1932046,3.2773058 A 2.0852404,2.1281961 0 0 0 6.2656736,4.5864882 2.1019223,2.1452216 0 0 0 6.7158834,6.911615 C 7.0078165,7.2036033 7.3743006,7.4051856 7.7746677,7.4911647 V 11.832018 A 2.0110058,2.0524322 0 0 0 7.0326134,12.146037 2.0852404,2.1281961 0 1 0 9.9284338,15.099201 2.0852404,2.1281961 0 0 0 10.276838,13.919322 2.0435355,2.0856321 0 0 0 10.118473,13.067314 2.0685586,2.1111705 0 0 0 8.6094783,11.799691 V 9.7562583 a 4.6042108,4.6990569 0 0 0 1.6673597,1.4731187 4.7126432,4.809723 0 0 0 1.744279,0.510281 2.0852404,2.1281961 0 0 0 4.128804,-0.417922 2.0935814,2.1367088 0 0 0 -0.64251,-1.4638829 2.0935814,2.1367088 0 0 0 -1.726179,-0.6049489 c -0.0098,9.004e-4 -0.01938,0.00161 -0.02941,0.00234 a 2.0935814,2.1367088 0 0 0 -0.0023,0 2.0935814,2.1367088 0 0 0 -0.877792,0.3371128 2.0852404,2.1281961 0 0 0 -0.766941,0.953602 1.8600342,1.8983507 0 0 0 -0.1086,0.374053 A 3.7701147,3.8477785 0 0 1 8.6592496,7.5165633 1.8600342,1.8983507 0 0 0 9.025752,7.4057331 2.0852404,2.1281961 0 0 0 10.310772,5.4384959 2.0435355,2.0856321 0 0 0 10.152409,4.5864882 2.0685586,2.1111705 0 0 0 9.025752,3.4389335 2.0435355,2.0856321 0 0 0 8.1932046,3.2773058 Z M 8.3153712,4.1339315 A 1.2428031,1.2684047 0 0 1 8.6682994,4.2216715 1.2511442,1.2769176 0 0 1 8.1932046,6.6807179 1.2511442,1.2769176 0 0 1 7.0326134,5.8910524 1.2428031,1.2684047 0 0 1 6.9670048,5.1591108 1.2428031,1.2684047 0 0 1 7.9511307,4.1524027 1.2428031,1.2684047 0 0 1 8.3153712,4.1339315 Z m 5.8368858,5.9594355 a 1.2428031,1.2684047 0 0 1 0.35519,0.08775 1.2503101,1.2760663 0 0 1 0.407227,2.084995 1.2511442,1.2769176 0 0 1 -2.042911,-0.417925 1.2428031,1.2684047 0 0 1 -0.06561,-0.73194 1.2428031,1.2684047 0 0 1 0.984126,-1.0044 1.2428031,1.2684047 0 0 1 0.361981,-0.01848 z m -5.8368858,2.553715 a 1.2428031,1.2684047 0 0 1 0.3529282,0.08775 c 0.2302107,0.0996 0.4277233,0.264532 0.5678526,0.475647 A 1.2511442,1.2769176 0 0 1 7.5009221,14.981447 1.2928489,1.3194815 0 0 1 7.0326134,14.401896 1.2428031,1.2684047 0 0 1 6.967005,13.669954 1.2428031,1.2684047 0 0 1 7.9511313,12.665556 1.2428031,1.2684047 0 0 1 8.3153714,12.647076 Z" />
</svg>
